<?xml version="1.0" encoding="UTF-8" standalone="no"?>
<!DOCTYPE svg PUBLIC "-//W3C//DTD SVG 1.1//EN"
 "http://www.w3.org/Graphics/SVG/1.1/DTD/svg11.dtd">
<!-- Generated by graphviz version 5.0.0 (20220707.1540)
 -->
<!-- Title: dependencies Pages: 1 -->
<svg width="2521pt" height="247pt"
 viewBox="0.00 0.00 2521.00 246.80" xmlns="http://www.w3.org/2000/svg" xmlns:xlink="http://www.w3.org/1999/xlink">
<g id="graph0" class="graph" transform="scale(1 1) rotate(0) translate(4 242.8)">
<title>dependencies</title>
<polygon fill="white" stroke="transparent" points="-4,4 -4,-242.8 2517,-242.8 2517,4 -4,4"/>
<text text-anchor="middle" x="1256.5" y="-8.2" font-family="sans-serif" font-size="14.00">dependencies</text>
<g id="clust1" class="cluster">
<title>cluster_AppModule</title>
<polygon fill="none" stroke="black" stroke-dasharray="1,5" points="8,-32.8 8,-230.8 2505,-230.8 2505,-32.8 8,-32.8"/>
</g>
<g id="clust20" class="cluster">
<title>cluster_AppModule_providers</title>
<polygon fill="none" stroke="black" points="2263,-40.8 2263,-92.8 2497,-92.8 2497,-40.8 2263,-40.8"/>
</g>
<g id="clust19" class="cluster">
<title>cluster_AppModule_bootstrap</title>
<polygon fill="none" stroke="black" points="1095,-170.8 1095,-222.8 1219,-222.8 1219,-170.8 1095,-170.8"/>
</g>
<g id="clust17" class="cluster">
<title>cluster_AppModule_imports</title>
<polygon fill="none" stroke="black" points="2111,-40.8 2111,-92.8 2255,-92.8 2255,-40.8 2111,-40.8"/>
</g>
<g id="clust2" class="cluster">
<title>cluster_AppModule_declarations</title>
<polygon fill="none" stroke="black" points="16,-40.8 16,-92.8 2103,-92.8 2103,-40.8 16,-40.8"/>
</g>
<!-- AppComponent -->
<g id="node1" class="node">
<title>AppComponent</title>
<polygon fill="#ffffb3" stroke="black" points="2094.94,-84.8 1989.06,-84.8 1989.06,-48.8 2094.94,-48.8 2094.94,-84.8"/>
<text text-anchor="middle" x="2042" y="-62.6" font-family="Times,serif" font-size="14.00">AppComponent</text>
</g>
<!-- AppModule -->
<g id="node15" class="node">
<title>AppModule</title>
<polygon fill="#8dd3c7" stroke="black" points="1198.66,-149.8 1195.66,-153.8 1174.66,-153.8 1171.66,-149.8 1115.34,-149.8 1115.34,-113.8 1198.66,-113.8 1198.66,-149.8"/>
<text text-anchor="middle" x="1157" y="-127.6" font-family="Times,serif" font-size="14.00">AppModule</text>
</g>
<!-- AppComponent&#45;&gt;AppModule -->
<g id="edge1" class="edge">
<title>AppComponent&#45;&gt;AppModule</title>
<path fill="none" stroke="black" d="M2042,-84.83C2042,-105.57 2042,-136.8 2042,-136.8 2042,-136.8 1208.79,-136.8 1208.79,-136.8"/>
<polygon fill="black" stroke="black" points="1208.79,-133.3 1198.79,-136.8 1208.79,-140.3 1208.79,-133.3"/>
</g>
<!-- CompletedTodosComponent -->
<g id="node2" class="node">
<title>CompletedTodosComponent</title>
<polygon fill="#ffffb3" stroke="black" points="1970.77,-84.8 1793.23,-84.8 1793.23,-48.8 1970.77,-48.8 1970.77,-84.8"/>
<text text-anchor="middle" x="1882" y="-62.6" font-family="Times,serif" font-size="14.00">CompletedTodosComponent</text>
</g>
<!-- CompletedTodosComponent&#45;&gt;AppModule -->
<g id="edge2" class="edge">
<title>CompletedTodosComponent&#45;&gt;AppModule</title>
<path fill="none" stroke="black" d="M1882,-84.91C1882,-104.14 1882,-131.8 1882,-131.8 1882,-131.8 1208.85,-131.8 1208.85,-131.8"/>
<polygon fill="black" stroke="black" points="1208.85,-128.3 1198.85,-131.8 1208.85,-135.3 1208.85,-128.3"/>
</g>
<!-- ContactUsComponent -->
<g id="node3" class="node">
<title>ContactUsComponent</title>
<polygon fill="#ffffb3" stroke="black" points="1775.44,-84.8 1634.56,-84.8 1634.56,-48.8 1775.44,-48.8 1775.44,-84.8"/>
<text text-anchor="middle" x="1705" y="-62.6" font-family="Times,serif" font-size="14.00">ContactUsComponent</text>
</g>
<!-- ContactUsComponent&#45;&gt;AppModule -->
<g id="edge3" class="edge">
<title>ContactUsComponent&#45;&gt;AppModule</title>
<path fill="none" stroke="black" d="M1705,-85.1C1705,-103.07 1705,-127.8 1705,-127.8 1705,-127.8 1209.09,-127.8 1209.09,-127.8"/>
<polygon fill="black" stroke="black" points="1209.09,-124.3 1199.09,-127.8 1209.09,-131.3 1209.09,-124.3"/>
</g>
<!-- DeletedTodosComponent -->
<g id="node4" class="node">
<title>DeletedTodosComponent</title>
<polygon fill="#ffffb3" stroke="black" points="1616.86,-84.8 1457.14,-84.8 1457.14,-48.8 1616.86,-48.8 1616.86,-84.8"/>
<text text-anchor="middle" x="1537" y="-62.6" font-family="Times,serif" font-size="14.00">DeletedTodosComponent</text>
</g>
<!-- DeletedTodosComponent&#45;&gt;AppModule -->
<g id="edge4" class="edge">
<title>DeletedTodosComponent&#45;&gt;AppModule</title>
<path fill="none" stroke="black" d="M1537,-84.83C1537,-101.2 1537,-122.8 1537,-122.8 1537,-122.8 1208.75,-122.8 1208.75,-122.8"/>
<polygon fill="black" stroke="black" points="1208.75,-119.3 1198.75,-122.8 1208.75,-126.3 1208.75,-119.3"/>
</g>
<!-- FavTodosComponent -->
<g id="node5" class="node">
<title>FavTodosComponent</title>
<polygon fill="#ffffb3" stroke="black" points="1438.83,-84.8 1301.17,-84.8 1301.17,-48.8 1438.83,-48.8 1438.83,-84.8"/>
<text text-anchor="middle" x="1370" y="-62.6" font-family="Times,serif" font-size="14.00">FavTodosComponent</text>
</g>
<!-- FavTodosComponent&#45;&gt;AppModule -->
<g id="edge5" class="edge">
<title>FavTodosComponent&#45;&gt;AppModule</title>
<path fill="none" stroke="black" d="M1370,-84.99C1370,-99.98 1370,-118.8 1370,-118.8 1370,-118.8 1208.83,-118.8 1208.83,-118.8"/>
<polygon fill="black" stroke="black" points="1208.83,-115.3 1198.83,-118.8 1208.83,-122.3 1208.83,-115.3"/>
</g>
<!-- FooterComponent -->
<g id="node6" class="node">
<title>FooterComponent</title>
<polygon fill="#ffffb3" stroke="black" points="1282.88,-84.8 1165.12,-84.8 1165.12,-48.8 1282.88,-48.8 1282.88,-84.8"/>
<text text-anchor="middle" x="1224" y="-62.6" font-family="Times,serif" font-size="14.00">FooterComponent</text>
</g>
<!-- FooterComponent&#45;&gt;AppModule -->
<g id="edge6" class="edge">
<title>FooterComponent&#45;&gt;AppModule</title>
<path fill="none" stroke="black" d="M1181.94,-84.91C1181.94,-84.91 1181.94,-103.79 1181.94,-103.79"/>
<polygon fill="black" stroke="black" points="1178.44,-103.79 1181.94,-113.79 1185.44,-103.79 1178.44,-103.79"/>
</g>
<!-- LoginComponent -->
<g id="node7" class="node">
<title>LoginComponent</title>
<polygon fill="#ffffb3" stroke="black" points="1147.27,-84.8 1032.73,-84.8 1032.73,-48.8 1147.27,-48.8 1147.27,-84.8"/>
<text text-anchor="middle" x="1090" y="-62.6" font-family="Times,serif" font-size="14.00">LoginComponent</text>
</g>
<!-- LoginComponent&#45;&gt;AppModule -->
<g id="edge7" class="edge">
<title>LoginComponent&#45;&gt;AppModule</title>
<path fill="none" stroke="black" d="M1131.28,-84.91C1131.28,-84.91 1131.28,-103.79 1131.28,-103.79"/>
<polygon fill="black" stroke="black" points="1127.78,-103.79 1131.28,-113.79 1134.78,-103.79 1127.78,-103.79"/>
</g>
<!-- NavbarComponent -->
<g id="node8" class="node">
<title>NavbarComponent</title>
<polygon fill="#ffffb3" stroke="black" points="1014.03,-84.8 891.97,-84.8 891.97,-48.8 1014.03,-48.8 1014.03,-84.8"/>
<text text-anchor="middle" x="953" y="-62.6" font-family="Times,serif" font-size="14.00">NavbarComponent</text>
</g>
<!-- NavbarComponent&#45;&gt;AppModule -->
<g id="edge8" class="edge">
<title>NavbarComponent&#45;&gt;AppModule</title>
<path fill="none" stroke="black" d="M953,-84.99C953,-99.98 953,-118.8 953,-118.8 953,-118.8 1105.23,-118.8 1105.23,-118.8"/>
<polygon fill="black" stroke="black" points="1105.23,-122.3 1115.23,-118.8 1105.23,-115.3 1105.23,-122.3"/>
</g>
<!-- NotFoundComponent -->
<g id="node9" class="node">
<title>NotFoundComponent</title>
<polygon fill="#ffffb3" stroke="black" points="874.12,-84.8 735.88,-84.8 735.88,-48.8 874.12,-48.8 874.12,-84.8"/>
<text text-anchor="middle" x="805" y="-62.6" font-family="Times,serif" font-size="14.00">NotFoundComponent</text>
</g>
<!-- NotFoundComponent&#45;&gt;AppModule -->
<g id="edge9" class="edge">
<title>NotFoundComponent&#45;&gt;AppModule</title>
<path fill="none" stroke="black" d="M805,-84.83C805,-101.2 805,-122.8 805,-122.8 805,-122.8 1105.24,-122.8 1105.24,-122.8"/>
<polygon fill="black" stroke="black" points="1105.24,-126.3 1115.24,-122.8 1105.24,-119.3 1105.24,-126.3"/>
</g>
<!-- ProfileComponent -->
<g id="node10" class="node">
<title>ProfileComponent</title>
<polygon fill="#ffffb3" stroke="black" points="717.94,-84.8 598.06,-84.8 598.06,-48.8 717.94,-48.8 717.94,-84.8"/>
<text text-anchor="middle" x="658" y="-62.6" font-family="Times,serif" font-size="14.00">ProfileComponent</text>
</g>
<!-- ProfileComponent&#45;&gt;AppModule -->
<g id="edge10" class="edge">
<title>ProfileComponent&#45;&gt;AppModule</title>
<path fill="none" stroke="black" d="M658,-85.1C658,-103.07 658,-127.8 658,-127.8 658,-127.8 1105.31,-127.8 1105.31,-127.8"/>
<polygon fill="black" stroke="black" points="1105.31,-131.3 1115.31,-127.8 1105.31,-124.3 1105.31,-131.3"/>
</g>
<!-- SignUpComponent -->
<g id="node11" class="node">
<title>SignUpComponent</title>
<polygon fill="#ffffb3" stroke="black" points="580.12,-84.8 455.88,-84.8 455.88,-48.8 580.12,-48.8 580.12,-84.8"/>
<text text-anchor="middle" x="518" y="-62.6" font-family="Times,serif" font-size="14.00">SignUpComponent</text>
</g>
<!-- SignUpComponent&#45;&gt;AppModule -->
<g id="edge11" class="edge">
<title>SignUpComponent&#45;&gt;AppModule</title>
<path fill="none" stroke="black" d="M518,-84.91C518,-104.14 518,-131.8 518,-131.8 518,-131.8 1105.07,-131.8 1105.07,-131.8"/>
<polygon fill="black" stroke="black" points="1105.07,-135.3 1115.07,-131.8 1105.07,-128.3 1105.07,-135.3"/>
</g>
<!-- TodoComponent -->
<g id="node12" class="node">
<title>TodoComponent</title>
<polygon fill="#ffffb3" stroke="black" points="437.38,-84.8 326.62,-84.8 326.62,-48.8 437.38,-48.8 437.38,-84.8"/>
<text text-anchor="middle" x="382" y="-62.6" font-family="Times,serif" font-size="14.00">TodoComponent</text>
</g>
<!-- TodoComponent&#45;&gt;AppModule -->
<g id="edge12" class="edge">
<title>TodoComponent&#45;&gt;AppModule</title>
<path fill="none" stroke="black" d="M382,-84.83C382,-105.57 382,-136.8 382,-136.8 382,-136.8 1105.33,-136.8 1105.33,-136.8"/>
<polygon fill="black" stroke="black" points="1105.33,-140.3 1115.33,-136.8 1105.33,-133.3 1105.33,-140.3"/>
</g>
<!-- TodoDetailsComponent -->
<g id="node13" class="node">
<title>TodoDetailsComponent</title>
<polygon fill="#ffffb3" stroke="black" points="308.04,-84.8 157.96,-84.8 157.96,-48.8 308.04,-48.8 308.04,-84.8"/>
<text text-anchor="middle" x="233" y="-62.6" font-family="Times,serif" font-size="14.00">TodoDetailsComponent</text>
</g>
<!-- TodoDetailsComponent&#45;&gt;AppModule -->
<g id="edge13" class="edge">
<title>TodoDetailsComponent&#45;&gt;AppModule</title>
<path fill="none" stroke="black" d="M233,-85.09C233,-107.01 233,-140.8 233,-140.8 233,-140.8 1105.2,-140.8 1105.2,-140.8"/>
<polygon fill="black" stroke="black" points="1105.2,-144.3 1115.2,-140.8 1105.2,-137.3 1105.2,-144.3"/>
</g>
<!-- TodosComponent -->
<g id="node14" class="node">
<title>TodosComponent</title>
<polygon fill="#ffffb3" stroke="black" points="140.33,-84.8 23.67,-84.8 23.67,-48.8 140.33,-48.8 140.33,-84.8"/>
<text text-anchor="middle" x="82" y="-62.6" font-family="Times,serif" font-size="14.00">TodosComponent</text>
</g>
<!-- TodosComponent&#45;&gt;AppModule -->
<g id="edge14" class="edge">
<title>TodosComponent&#45;&gt;AppModule</title>
<path fill="none" stroke="black" d="M82,-85.12C82,-108.46 82,-145.8 82,-145.8 82,-145.8 1105.19,-145.8 1105.19,-145.8"/>
<polygon fill="black" stroke="black" points="1105.19,-149.3 1115.19,-145.8 1105.19,-142.3 1105.19,-149.3"/>
</g>
<!-- AppComponent  -->
<g id="node17" class="node">
<title>AppComponent </title>
<polygon fill="#80b1d3" stroke="black" points="1211.44,-214.8 1102.56,-214.8 1102.56,-178.8 1211.44,-178.8 1211.44,-214.8"/>
<text text-anchor="middle" x="1157" y="-192.6" font-family="Times,serif" font-size="14.00">AppComponent </text>
</g>
<!-- AppModule&#45;&gt;AppComponent  -->
<g id="edge16" class="edge">
<title>AppModule&#45;&gt;AppComponent </title>
<path fill="none" stroke="black" stroke-dasharray="1,5" d="M1157,-149.91C1157,-149.91 1157,-168.79 1157,-168.79"/>
<polygon fill="black" stroke="black" points="1153.5,-168.79 1157,-178.79 1160.5,-168.79 1153.5,-168.79"/>
</g>
<!-- AppRoutingModule -->
<g id="node16" class="node">
<title>AppRoutingModule</title>
<polygon fill="#8dd3c7" stroke="black" points="2247.28,-84.8 2244.28,-88.8 2223.28,-88.8 2220.28,-84.8 2118.72,-84.8 2118.72,-48.8 2247.28,-48.8 2247.28,-84.8"/>
<text text-anchor="middle" x="2183" y="-62.6" font-family="Times,serif" font-size="14.00">AppRoutingModule</text>
</g>
<!-- AppRoutingModule&#45;&gt;AppModule -->
<g id="edge15" class="edge">
<title>AppRoutingModule&#45;&gt;AppModule</title>
<path fill="none" stroke="black" d="M2183,-85.09C2183,-107.01 2183,-140.8 2183,-140.8 2183,-140.8 1208.81,-140.8 1208.81,-140.8"/>
<polygon fill="black" stroke="black" points="1208.81,-137.3 1198.81,-140.8 1208.81,-144.3 1208.81,-137.3"/>
</g>
<!-- MyInterceptorInterceptor -->
<g id="node18" class="node">
<title>MyInterceptorInterceptor</title>
<ellipse fill="#fdb462" stroke="black" cx="2380" cy="-66.8" rx="109.33" ry="18"/>
<text text-anchor="middle" x="2380" y="-62.6" font-family="Times,serif" font-size="14.00">MyInterceptorInterceptor</text>
</g>
<!-- MyInterceptorInterceptor&#45;&gt;AppModule -->
<g id="edge17" class="edge">
<title>MyInterceptorInterceptor&#45;&gt;AppModule</title>
<path fill="none" stroke="black" d="M2380,-85.12C2380,-108.46 2380,-145.8 2380,-145.8 2380,-145.8 1208.74,-145.8 1208.74,-145.8"/>
<polygon fill="black" stroke="black" points="1208.74,-142.3 1198.74,-145.8 1208.74,-149.3 1208.74,-142.3"/>
</g>
</g>
</svg>
