<?xml version="1.0" encoding="UTF-8" standalone="no"?>
<!DOCTYPE svg PUBLIC "-//W3C//DTD SVG 1.1//EN"
 "http://www.w3.org/Graphics/SVG/1.1/DTD/svg11.dtd">
<!-- Generated by graphviz version 5.0.0 (20220707.1540)
 -->
<!-- Title: dependencies Pages: 1 -->
<svg width="2521pt" height="247pt"
 viewBox="0.00 0.00 2521.00 246.80" xmlns="http://www.w3.org/2000/svg" xmlns:xlink="http://www.w3.org/1999/xlink">
<g id="graph0" class="graph" transform="scale(1 1) rotate(0) translate(4 242.8)">
<title>dependencies</title>
<polygon fill="white" stroke="transparent" points="-4,4 -4,-242.8 2517,-242.8 2517,4 -4,4"/>
<text text-anchor="middle" x="1256.5" y="-8.2" font-family="sans-serif" font-size="14.00">dependencies</text>
<g id="clust1" class="cluster">
<title>cluster_AppModule</title>
<polygon fill="none" stroke="black" stroke-dasharray="1,5" points="8,-32.8 8,-230.8 2505,-230.8 2505,-32.8 8,-32.8"/>
</g>
<g id="clust2" class="cluster">
<title>cluster_AppModule_declarations</title>
<polygon fill="none" stroke="black" points="410,-40.8 410,-92.8 2497,-92.8 2497,-40.8 410,-40.8"/>
</g>
<g id="clust17" class="cluster">
<title>cluster_AppModule_imports</title>
<polygon fill="none" stroke="black" points="258,-40.8 258,-92.8 402,-92.8 402,-40.8 258,-40.8"/>
</g>
<g id="clust19" class="cluster">
<title>cluster_AppModule_bootstrap</title>
<polygon fill="none" stroke="black" points="1211,-170.8 1211,-222.8 1335,-222.8 1335,-170.8 1211,-170.8"/>
</g>
<g id="clust20" class="cluster">
<title>cluster_AppModule_providers</title>
<polygon fill="none" stroke="black" points="16,-40.8 16,-92.8 250,-92.8 250,-40.8 16,-40.8"/>
</g>
<!-- AppComponent -->
<g id="node1" class="node">
<title>AppComponent</title>
<polygon fill="#ffffb3" stroke="black" points="2488.94,-84.8 2383.06,-84.8 2383.06,-48.8 2488.94,-48.8 2488.94,-84.8"/>
<text text-anchor="middle" x="2436" y="-62.6" font-family="Times,serif" font-size="14.00">AppComponent</text>
</g>
<!-- AppModule -->
<g id="node15" class="node">
<title>AppModule</title>
<polygon fill="#8dd3c7" stroke="black" points="1314.66,-149.8 1311.66,-153.8 1290.66,-153.8 1287.66,-149.8 1231.34,-149.8 1231.34,-113.8 1314.66,-113.8 1314.66,-149.8"/>
<text text-anchor="middle" x="1273" y="-127.6" font-family="Times,serif" font-size="14.00">AppModule</text>
</g>
<!-- AppComponent&#45;&gt;AppModule -->
<g id="edge1" class="edge">
<title>AppComponent&#45;&gt;AppModule</title>
<path fill="none" stroke="black" d="M2436,-85.12C2436,-108.46 2436,-145.8 2436,-145.8 2436,-145.8 1324.73,-145.8 1324.73,-145.8"/>
<polygon fill="black" stroke="black" points="1324.73,-142.3 1314.73,-145.8 1324.73,-149.3 1324.73,-142.3"/>
</g>
<!-- CompletedTodosComponent -->
<g id="node2" class="node">
<title>CompletedTodosComponent</title>
<polygon fill="#ffffb3" stroke="black" points="2364.77,-84.8 2187.23,-84.8 2187.23,-48.8 2364.77,-48.8 2364.77,-84.8"/>
<text text-anchor="middle" x="2276" y="-62.6" font-family="Times,serif" font-size="14.00">CompletedTodosComponent</text>
</g>
<!-- CompletedTodosComponent&#45;&gt;AppModule -->
<g id="edge2" class="edge">
<title>CompletedTodosComponent&#45;&gt;AppModule</title>
<path fill="none" stroke="black" d="M2276,-85.09C2276,-107.01 2276,-140.8 2276,-140.8 2276,-140.8 1324.82,-140.8 1324.82,-140.8"/>
<polygon fill="black" stroke="black" points="1324.82,-137.3 1314.82,-140.8 1324.82,-144.3 1324.82,-137.3"/>
</g>
<!-- ContactUsComponent -->
<g id="node3" class="node">
<title>ContactUsComponent</title>
<polygon fill="#ffffb3" stroke="black" points="2169.44,-84.8 2028.56,-84.8 2028.56,-48.8 2169.44,-48.8 2169.44,-84.8"/>
<text text-anchor="middle" x="2099" y="-62.6" font-family="Times,serif" font-size="14.00">ContactUsComponent</text>
</g>
<!-- ContactUsComponent&#45;&gt;AppModule -->
<g id="edge3" class="edge">
<title>ContactUsComponent&#45;&gt;AppModule</title>
<path fill="none" stroke="black" d="M2099,-84.83C2099,-105.57 2099,-136.8 2099,-136.8 2099,-136.8 1324.81,-136.8 1324.81,-136.8"/>
<polygon fill="black" stroke="black" points="1324.81,-133.3 1314.81,-136.8 1324.81,-140.3 1324.81,-133.3"/>
</g>
<!-- DeletedTodosComponent -->
<g id="node4" class="node">
<title>DeletedTodosComponent</title>
<polygon fill="#ffffb3" stroke="black" points="2010.86,-84.8 1851.14,-84.8 1851.14,-48.8 2010.86,-48.8 2010.86,-84.8"/>
<text text-anchor="middle" x="1931" y="-62.6" font-family="Times,serif" font-size="14.00">DeletedTodosComponent</text>
</g>
<!-- DeletedTodosComponent&#45;&gt;AppModule -->
<g id="edge4" class="edge">
<title>DeletedTodosComponent&#45;&gt;AppModule</title>
<path fill="none" stroke="black" d="M1931,-84.91C1931,-104.14 1931,-131.8 1931,-131.8 1931,-131.8 1324.91,-131.8 1324.91,-131.8"/>
<polygon fill="black" stroke="black" points="1324.91,-128.3 1314.91,-131.8 1324.91,-135.3 1324.91,-128.3"/>
</g>
<!-- FavTodosComponent -->
<g id="node5" class="node">
<title>FavTodosComponent</title>
<polygon fill="#ffffb3" stroke="black" points="1832.83,-84.8 1695.17,-84.8 1695.17,-48.8 1832.83,-48.8 1832.83,-84.8"/>
<text text-anchor="middle" x="1764" y="-62.6" font-family="Times,serif" font-size="14.00">FavTodosComponent</text>
</g>
<!-- FavTodosComponent&#45;&gt;AppModule -->
<g id="edge5" class="edge">
<title>FavTodosComponent&#45;&gt;AppModule</title>
<path fill="none" stroke="black" d="M1764,-85.1C1764,-103.07 1764,-127.8 1764,-127.8 1764,-127.8 1324.86,-127.8 1324.86,-127.8"/>
<polygon fill="black" stroke="black" points="1324.86,-124.3 1314.86,-127.8 1324.86,-131.3 1324.86,-124.3"/>
</g>
<!-- FooterComponent -->
<g id="node6" class="node">
<title>FooterComponent</title>
<polygon fill="#ffffb3" stroke="black" points="1676.88,-84.8 1559.12,-84.8 1559.12,-48.8 1676.88,-48.8 1676.88,-84.8"/>
<text text-anchor="middle" x="1618" y="-62.6" font-family="Times,serif" font-size="14.00">FooterComponent</text>
</g>
<!-- FooterComponent&#45;&gt;AppModule -->
<g id="edge6" class="edge">
<title>FooterComponent&#45;&gt;AppModule</title>
<path fill="none" stroke="black" d="M1618,-84.83C1618,-101.2 1618,-122.8 1618,-122.8 1618,-122.8 1324.96,-122.8 1324.96,-122.8"/>
<polygon fill="black" stroke="black" points="1324.96,-119.3 1314.96,-122.8 1324.96,-126.3 1324.96,-119.3"/>
</g>
<!-- LoginComponent -->
<g id="node7" class="node">
<title>LoginComponent</title>
<polygon fill="#ffffb3" stroke="black" points="1541.27,-84.8 1426.73,-84.8 1426.73,-48.8 1541.27,-48.8 1541.27,-84.8"/>
<text text-anchor="middle" x="1484" y="-62.6" font-family="Times,serif" font-size="14.00">LoginComponent</text>
</g>
<!-- LoginComponent&#45;&gt;AppModule -->
<g id="edge7" class="edge">
<title>LoginComponent&#45;&gt;AppModule</title>
<path fill="none" stroke="black" d="M1484,-84.99C1484,-99.98 1484,-118.8 1484,-118.8 1484,-118.8 1324.69,-118.8 1324.69,-118.8"/>
<polygon fill="black" stroke="black" points="1324.69,-115.3 1314.69,-118.8 1324.69,-122.3 1324.69,-115.3"/>
</g>
<!-- NavbarComponent -->
<g id="node8" class="node">
<title>NavbarComponent</title>
<polygon fill="#ffffb3" stroke="black" points="1408.03,-84.8 1285.97,-84.8 1285.97,-48.8 1408.03,-48.8 1408.03,-84.8"/>
<text text-anchor="middle" x="1347" y="-62.6" font-family="Times,serif" font-size="14.00">NavbarComponent</text>
</g>
<!-- NavbarComponent&#45;&gt;AppModule -->
<g id="edge8" class="edge">
<title>NavbarComponent&#45;&gt;AppModule</title>
<path fill="none" stroke="black" d="M1300.28,-84.91C1300.28,-84.91 1300.28,-103.79 1300.28,-103.79"/>
<polygon fill="black" stroke="black" points="1296.78,-103.79 1300.28,-113.79 1303.78,-103.79 1296.78,-103.79"/>
</g>
<!-- NotFoundComponent -->
<g id="node9" class="node">
<title>NotFoundComponent</title>
<polygon fill="#ffffb3" stroke="black" points="1268.12,-84.8 1129.88,-84.8 1129.88,-48.8 1268.12,-48.8 1268.12,-84.8"/>
<text text-anchor="middle" x="1199" y="-62.6" font-family="Times,serif" font-size="14.00">NotFoundComponent</text>
</g>
<!-- NotFoundComponent&#45;&gt;AppModule -->
<g id="edge9" class="edge">
<title>NotFoundComponent&#45;&gt;AppModule</title>
<path fill="none" stroke="black" d="M1249.61,-84.91C1249.61,-84.91 1249.61,-103.79 1249.61,-103.79"/>
<polygon fill="black" stroke="black" points="1246.11,-103.79 1249.61,-113.79 1253.11,-103.79 1246.11,-103.79"/>
</g>
<!-- ProfileComponent -->
<g id="node10" class="node">
<title>ProfileComponent</title>
<polygon fill="#ffffb3" stroke="black" points="1111.94,-84.8 992.06,-84.8 992.06,-48.8 1111.94,-48.8 1111.94,-84.8"/>
<text text-anchor="middle" x="1052" y="-62.6" font-family="Times,serif" font-size="14.00">ProfileComponent</text>
</g>
<!-- ProfileComponent&#45;&gt;AppModule -->
<g id="edge10" class="edge">
<title>ProfileComponent&#45;&gt;AppModule</title>
<path fill="none" stroke="black" d="M1052,-84.99C1052,-99.98 1052,-118.8 1052,-118.8 1052,-118.8 1221.17,-118.8 1221.17,-118.8"/>
<polygon fill="black" stroke="black" points="1221.17,-122.3 1231.17,-118.8 1221.17,-115.3 1221.17,-122.3"/>
</g>
<!-- SignUpComponent -->
<g id="node11" class="node">
<title>SignUpComponent</title>
<polygon fill="#ffffb3" stroke="black" points="974.12,-84.8 849.88,-84.8 849.88,-48.8 974.12,-48.8 974.12,-84.8"/>
<text text-anchor="middle" x="912" y="-62.6" font-family="Times,serif" font-size="14.00">SignUpComponent</text>
</g>
<!-- SignUpComponent&#45;&gt;AppModule -->
<g id="edge11" class="edge">
<title>SignUpComponent&#45;&gt;AppModule</title>
<path fill="none" stroke="black" d="M912,-84.83C912,-101.2 912,-122.8 912,-122.8 912,-122.8 1221.24,-122.8 1221.24,-122.8"/>
<polygon fill="black" stroke="black" points="1221.24,-126.3 1231.24,-122.8 1221.24,-119.3 1221.24,-126.3"/>
</g>
<!-- TodoComponent -->
<g id="node12" class="node">
<title>TodoComponent</title>
<polygon fill="#ffffb3" stroke="black" points="831.38,-84.8 720.62,-84.8 720.62,-48.8 831.38,-48.8 831.38,-84.8"/>
<text text-anchor="middle" x="776" y="-62.6" font-family="Times,serif" font-size="14.00">TodoComponent</text>
</g>
<!-- TodoComponent&#45;&gt;AppModule -->
<g id="edge12" class="edge">
<title>TodoComponent&#45;&gt;AppModule</title>
<path fill="none" stroke="black" d="M776,-85.1C776,-103.07 776,-127.8 776,-127.8 776,-127.8 1221.05,-127.8 1221.05,-127.8"/>
<polygon fill="black" stroke="black" points="1221.05,-131.3 1231.05,-127.8 1221.05,-124.3 1221.05,-131.3"/>
</g>
<!-- TodoDetailsComponent -->
<g id="node13" class="node">
<title>TodoDetailsComponent</title>
<polygon fill="#ffffb3" stroke="black" points="702.04,-84.8 551.96,-84.8 551.96,-48.8 702.04,-48.8 702.04,-84.8"/>
<text text-anchor="middle" x="627" y="-62.6" font-family="Times,serif" font-size="14.00">TodoDetailsComponent</text>
</g>
<!-- TodoDetailsComponent&#45;&gt;AppModule -->
<g id="edge13" class="edge">
<title>TodoDetailsComponent&#45;&gt;AppModule</title>
<path fill="none" stroke="black" d="M627,-84.91C627,-104.14 627,-131.8 627,-131.8 627,-131.8 1221.11,-131.8 1221.11,-131.8"/>
<polygon fill="black" stroke="black" points="1221.11,-135.3 1231.11,-131.8 1221.11,-128.3 1221.11,-135.3"/>
</g>
<!-- TodosComponent -->
<g id="node14" class="node">
<title>TodosComponent</title>
<polygon fill="#ffffb3" stroke="black" points="534.33,-84.8 417.67,-84.8 417.67,-48.8 534.33,-48.8 534.33,-84.8"/>
<text text-anchor="middle" x="476" y="-62.6" font-family="Times,serif" font-size="14.00">TodosComponent</text>
</g>
<!-- TodosComponent&#45;&gt;AppModule -->
<g id="edge14" class="edge">
<title>TodosComponent&#45;&gt;AppModule</title>
<path fill="none" stroke="black" d="M476,-84.83C476,-105.57 476,-136.8 476,-136.8 476,-136.8 1221.27,-136.8 1221.27,-136.8"/>
<polygon fill="black" stroke="black" points="1221.27,-140.3 1231.27,-136.8 1221.27,-133.3 1221.27,-140.3"/>
</g>
<!-- AppComponent  -->
<g id="node17" class="node">
<title>AppComponent </title>
<polygon fill="#80b1d3" stroke="black" points="1327.44,-214.8 1218.56,-214.8 1218.56,-178.8 1327.44,-178.8 1327.44,-214.8"/>
<text text-anchor="middle" x="1273" y="-192.6" font-family="Times,serif" font-size="14.00">AppComponent </text>
</g>
<!-- AppModule&#45;&gt;AppComponent  -->
<g id="edge16" class="edge">
<title>AppModule&#45;&gt;AppComponent </title>
<path fill="none" stroke="black" stroke-dasharray="1,5" d="M1273,-149.91C1273,-149.91 1273,-168.79 1273,-168.79"/>
<polygon fill="black" stroke="black" points="1269.5,-168.79 1273,-178.79 1276.5,-168.79 1269.5,-168.79"/>
</g>
<!-- AppRoutingModule -->
<g id="node16" class="node">
<title>AppRoutingModule</title>
<polygon fill="#8dd3c7" stroke="black" points="394.28,-84.8 391.28,-88.8 370.28,-88.8 367.28,-84.8 265.72,-84.8 265.72,-48.8 394.28,-48.8 394.28,-84.8"/>
<text text-anchor="middle" x="330" y="-62.6" font-family="Times,serif" font-size="14.00">AppRoutingModule</text>
</g>
<!-- AppRoutingModule&#45;&gt;AppModule -->
<g id="edge15" class="edge">
<title>AppRoutingModule&#45;&gt;AppModule</title>
<path fill="none" stroke="black" d="M330,-85.09C330,-107.01 330,-140.8 330,-140.8 330,-140.8 1221.26,-140.8 1221.26,-140.8"/>
<polygon fill="black" stroke="black" points="1221.26,-144.3 1231.26,-140.8 1221.26,-137.3 1221.26,-144.3"/>
</g>
<!-- MyInterceptorInterceptor -->
<g id="node18" class="node">
<title>MyInterceptorInterceptor</title>
<ellipse fill="#fdb462" stroke="black" cx="133" cy="-66.8" rx="109.33" ry="18"/>
<text text-anchor="middle" x="133" y="-62.6" font-family="Times,serif" font-size="14.00">MyInterceptorInterceptor</text>
</g>
<!-- MyInterceptorInterceptor&#45;&gt;AppModule -->
<g id="edge17" class="edge">
<title>MyInterceptorInterceptor&#45;&gt;AppModule</title>
<path fill="none" stroke="black" d="M133,-85.12C133,-108.46 133,-145.8 133,-145.8 133,-145.8 1221.07,-145.8 1221.07,-145.8"/>
<polygon fill="black" stroke="black" points="1221.07,-149.3 1231.07,-145.8 1221.07,-142.3 1221.07,-149.3"/>
</g>
</g>
</svg>
